<svg xmlns="http://www.w3.org/2000/svg" xmlns:xlink="http://www.w3.org/1999/xlink" width="5000" zoomAndPan="magnify" viewBox="0 0 3750 3749.999967" height="5000" preserveAspectRatio="xMidYMid meet" version="1.0"><defs><g/><clipPath id="5f177286bd"><path d="M 1198 0.359375 L 2809 0.359375 L 2809 1452 L 1198 1452 Z M 1198 0.359375 " clip-rule="nonzero"/></clipPath><clipPath id="ad2b3f9ab9"><rect x="0" width="1611" y="0" height="1452"/></clipPath><clipPath id="2d72d9385d"><path d="M 653 0.359375 L 1777 0.359375 L 1777 1452 L 653 1452 Z M 653 0.359375 " clip-rule="nonzero"/></clipPath><clipPath id="dc66e4bdea"><rect x="0" width="1124" y="0" height="1452"/></clipPath><clipPath id="29c0ddd87a"><path d="M 2463 7 L 3518.28125 7 L 3518.28125 1458.359375 L 2463 1458.359375 Z M 2463 7 " clip-rule="nonzero"/></clipPath><clipPath id="4fbd18acee"><rect x="0" width="1056" y="0" height="1452"/></clipPath><clipPath id="3e6d11d8a6"><path d="M 0.601562 0.359375 L 1125 0.359375 L 1125 1452 L 0.601562 1452 Z M 0.601562 0.359375 " clip-rule="nonzero"/></clipPath><clipPath id="89c8e7b635"><rect x="0" width="1125" y="0" height="1452"/></clipPath><clipPath id="c20f1cd1ab"><rect x="0" width="3519" y="0" height="1459"/></clipPath></defs><rect x="-375" width="4500" fill="#ffffff" y="-374.999997" height="4499.99996" fill-opacity="1"/><rect x="-375" width="4500" fill="#1c1c1c" y="-374.999997" height="4499.99996" fill-opacity="1"/><g transform="matrix(1, 0, 0, 1, 99, 1269)"><g clip-path="url(#c20f1cd1ab)"><g clip-path="url(#5f177286bd)"><g transform="matrix(1, 0, 0, 1, 1198, 0)"><g clip-path="url(#ad2b3f9ab9)"><g fill="#c6a75e" fill-opacity="1"><g transform="translate(1.01197, 1130.343281)"><g><path d="M 11.609375 -1061.90625 L 464.21875 -1061.90625 L 464.21875 -1059 C 434.238281 -1023.21875 418.039062 -981.144531 415.625 -932.78125 C 413.207031 -884.425781 421.1875 -830.269531 439.5625 -770.3125 L 593.328125 -272.734375 L 767.40625 -776.125 L 761.609375 -794.984375 C 744.203125 -847.203125 725.582031 -896.519531 705.75 -942.9375 C 685.925781 -989.363281 661.507812 -1028.050781 632.5 -1059 L 632.5 -1061.90625 L 1074.953125 -1061.90625 L 1074.953125 -1059 C 1014.992188 -991.300781 1005.804688 -894.585938 1047.390625 -768.859375 L 1211.328125 -275.625 L 1347.6875 -718.09375 C 1372.832031 -798.363281 1380.328125 -865.578125 1370.171875 -919.734375 C 1360.015625 -973.890625 1335.113281 -1020.3125 1295.46875 -1059 L 1295.46875 -1061.90625 L 1587.046875 -1061.90625 L 1587.046875 -1059 C 1556.097656 -1028.050781 1528.773438 -989.363281 1505.078125 -942.9375 C 1481.390625 -896.519531 1460.359375 -843.816406 1441.984375 -784.828125 L 1193.921875 4.359375 L 1028.53125 4.359375 L 802.234375 -673.125 L 568.671875 4.359375 L 401.84375 4.359375 L 155.21875 -776.125 C 137.8125 -832.207031 117.984375 -884.910156 95.734375 -934.234375 C 73.492188 -983.566406 45.453125 -1025.15625 11.609375 -1059 Z M 11.609375 -1061.90625 "/></g></g></g></g></g></g><g clip-path="url(#2d72d9385d)"><g transform="matrix(1, 0, 0, 1, 653, 0)"><g clip-path="url(#dc66e4bdea)"><g fill="#1c1c1c" fill-opacity="1"><g transform="translate(28.907195, 1130.343281)"><g><path d="M 310.445312 27.199219 L -15.59375 27.199219 L -15.59375 -14.667969 L -7.019531 -22.726562 C 22.847656 -50.78125 49.910156 -86.550781 74.167969 -130.03125 C 99.074219 -174.679688 121.917969 -225.804688 142.691406 -283.40625 L 434.960938 -1093.453125 L 651.59375 -1093.453125 L 946.765625 -276.164062 C 966.710938 -221.078125 987.570312 -171.761719 1009.34375 -128.21875 C 1030.546875 -85.8125 1053.921875 -50.011719 1079.46875 -20.8125 L 1086.199219 -13.121094 L 1086.199219 27.199219 L 593.691406 27.199219 L 593.691406 -12.441406 L 599.652344 -19.894531 C 623.554688 -49.773438 638.324219 -86.609375 643.960938 -130.40625 C 649.691406 -174.910156 642.171875 -226.054688 621.40625 -283.839844 L 592.324219 -366.722656 L 617.992188 -375.726562 L 617.992188 -348.527344 L 274.179688 -348.527344 L 274.179688 -375.726562 L 299.648438 -366.175781 L 282.238281 -319.753906 C 254.226562 -242.941406 246.308594 -180.402344 258.484375 -132.136719 C 270.414062 -84.84375 293.054688 -49.105469 326.410156 -24.921875 L 337.644531 -16.777344 L 337.644531 27.199219 Z M 310.445312 -27.199219 L 310.445312 0 L 283.246094 0 L 283.246094 -2.902344 L 310.445312 -2.902344 L 294.480469 19.121094 C 250.464844 -12.789062 220.882812 -58.773438 205.734375 -118.832031 C 190.832031 -177.914062 199.351562 -251.257812 231.300781 -338.855469 L 255.328125 -402.925781 L 637.273438 -402.925781 L 672.601562 -302.238281 C 696.324219 -236.226562 704.761719 -176.636719 697.917969 -123.460938 C 690.984375 -69.578125 672.386719 -23.730469 642.132812 14.089844 L 620.890625 -2.902344 L 648.09375 -2.902344 L 648.09375 0 L 620.890625 0 L 620.890625 -27.199219 L 1058.996094 -27.199219 L 1058.996094 0 L 1031.796875 0 L 1031.796875 -2.902344 L 1058.996094 -2.902344 L 1038.527344 15.011719 C 1009.917969 -17.6875 983.96875 -57.320312 960.683594 -103.890625 C 937.96875 -149.320312 916.273438 -200.585938 895.601562 -257.6875 L 606.914062 -1057.011719 L 632.496094 -1066.25 L 632.496094 -1039.050781 L 454.0625 -1039.050781 L 454.0625 -1066.25 L 479.648438 -1057.019531 L 193.867188 -264.949219 C 172.085938 -204.566406 148.023438 -150.757812 121.675781 -103.527344 C 94.675781 -55.132812 64.195312 -14.984375 30.230469 16.921875 L 11.605469 -2.902344 L 38.804688 -2.902344 L 38.804688 0 L 11.605469 0 L 11.605469 -27.199219 Z M 295.9375 -466.757812 L 596.230469 -466.757812 L 596.230469 -439.558594 L 570.5625 -430.558594 L 422.589844 -852.707031 L 448.261719 -861.707031 L 473.847656 -852.472656 L 321.523438 -430.324219 L 295.9375 -439.558594 Z M 257.207031 -412.355469 L 448.632812 -942.875 L 634.585938 -412.355469 Z M 257.207031 -412.355469 "/></g></g></g><g fill="#c6a75e" fill-opacity="1"><g transform="translate(28.907195, 1130.343281)"><g><path d="M 310.453125 0 L 11.609375 0 L 11.609375 -2.90625 C 43.523438 -32.882812 72.296875 -70.84375 97.921875 -116.78125 C 123.546875 -162.71875 147 -215.1875 168.28125 -274.1875 L 454.0625 -1066.25 L 632.5 -1066.25 L 921.1875 -266.921875 C 941.5 -210.828125 962.773438 -160.535156 985.015625 -116.046875 C 1007.253906 -71.566406 1031.914062 -33.851562 1059 -2.90625 L 1059 0 L 620.890625 0 L 620.890625 -2.90625 C 647.972656 -36.75 664.65625 -78.085938 670.9375 -126.921875 C 677.226562 -175.765625 669.25 -231.132812 647 -293.03125 L 618 -375.734375 L 274.1875 -375.734375 L 256.765625 -329.3125 C 226.785156 -247.101562 218.566406 -179.160156 232.109375 -125.484375 C 245.648438 -71.804688 271.765625 -30.945312 310.453125 -2.90625 Z M 295.9375 -439.5625 L 596.234375 -439.5625 L 448.265625 -861.703125 Z M 295.9375 -439.5625 "/></g></g></g></g></g></g><g clip-path="url(#29c0ddd87a)"><g transform="matrix(1, 0, 0, 1, 2463, 7)"><g clip-path="url(#4fbd18acee)"><g fill="#1c1c1c" fill-opacity="1"><g transform="translate(28.748919, 1130.404942)"><g><path d="M 274.542969 0 L 274.542969 -9.148438 L 277.265625 -14.769531 C 292.359375 -45.894531 304.585938 -74.101562 313.953125 -99.390625 C 323.015625 -123.863281 329.824219 -149.984375 334.378906 -177.757812 C 338.972656 -205.796875 341.273438 -240.839844 341.273438 -282.882812 L 341.273438 -491.78125 L 368.472656 -491.78125 L 344.585938 -478.773438 L 176.304688 -787.765625 C 151.398438 -833.75 129.175781 -872.472656 109.632812 -903.929688 C 90.566406 -934.621094 72.074219 -960.304688 54.15625 -980.980469 C 36.566406 -1001.273438 16.945312 -1019.542969 -4.714844 -1035.785156 L -15.59375 -1043.945312 L -15.59375 -1089.097656 L 511.726562 -1089.097656 L 511.726562 -1045.035156 L 502.230469 -1036.894531 C 492.292969 -1028.378906 483.542969 -1013.773438 475.984375 -993.085938 C 468.179688 -971.722656 465.554688 -946.367188 468.105469 -917.011719 C 470.675781 -887.460938 481.675781 -855.019531 501.109375 -819.6875 L 628.800781 -586.066406 L 604.933594 -573.019531 L 581.230469 -586.363281 L 691.484375 -782.203125 C 715.265625 -825.363281 727.15625 -862.984375 727.15625 -895.070312 C 727.15625 -926.949219 720.394531 -954.566406 706.878906 -977.914062 C 692.46875 -1002.804688 676.28125 -1022.949219 658.316406 -1038.347656 L 648.816406 -1046.488281 L 648.816406 -1089.097656 L 1023.820312 -1089.097656 L 1023.820312 -1047.546875 L 1015.628906 -1039.542969 C 974.285156 -999.140625 938.867188 -957.875 909.375 -915.738281 C 879.425781 -872.957031 849.199219 -824.394531 818.691406 -770.054688 L 654.671875 -482.652344 L 631.046875 -496.132812 L 658.246094 -496.132812 L 658.246094 -281.433594 C 658.246094 -240.210938 660.324219 -205.507812 664.484375 -177.328125 C 668.558594 -149.703125 675.105469 -123.726562 684.117188 -99.390625 C 693.484375 -74.101562 705.710938 -45.894531 720.800781 -14.769531 L 723.527344 -9.148438 L 723.527344 27.199219 L 274.542969 27.199219 Z M 328.941406 0 L 301.742188 0 L 301.742188 -27.199219 L 696.328125 -27.199219 L 696.328125 0 L 669.128906 0 L 669.128906 -2.902344 L 696.328125 -2.902344 L 671.851562 8.964844 C 655.996094 -23.738281 643.078125 -53.558594 633.101562 -80.496094 C 622.773438 -108.382812 615.292969 -138.015625 610.664062 -169.386719 C 606.121094 -200.199219 603.847656 -237.546875 603.847656 -281.433594 L 603.847656 -503.347656 L 771.253906 -796.683594 C 802.644531 -852.59375 833.828125 -902.679688 864.808594 -946.9375 C 896.242188 -991.84375 933.84375 -1035.683594 977.609375 -1078.453125 L 996.617188 -1058.996094 L 969.417969 -1058.996094 L 969.417969 -1061.898438 L 996.617188 -1061.898438 L 996.617188 -1034.699219 L 676.019531 -1034.699219 L 676.019531 -1061.898438 L 703.21875 -1061.898438 L 703.21875 -1058.996094 L 676.019531 -1058.996094 L 693.71875 -1079.648438 C 716.375 -1060.230469 736.453125 -1035.40625 753.957031 -1005.167969 C 772.355469 -973.390625 781.554688 -936.691406 781.554688 -895.070312 C 781.554688 -853.65625 767.332031 -807.136719 738.890625 -755.519531 L 604.582031 -516.949219 L 453.441406 -793.472656 C 430.320312 -835.511719 417.140625 -875.121094 413.910156 -912.296875 C 410.660156 -949.675781 414.320312 -982.828125 424.886719 -1011.757812 C 435.703125 -1041.359375 449.683594 -1063.507812 466.824219 -1078.199219 L 484.527344 -1057.546875 L 457.328125 -1057.546875 L 457.328125 -1061.898438 L 484.527344 -1061.898438 L 484.527344 -1034.699219 L 11.605469 -1034.699219 L 11.605469 -1061.898438 L 38.804688 -1061.898438 L 38.804688 -1057.546875 L 11.605469 -1057.546875 L 27.925781 -1079.308594 C 52.6875 -1060.734375 75.136719 -1039.835938 95.265625 -1016.609375 C 115.066406 -993.761719 135.257812 -965.769531 155.84375 -932.636719 C 175.953125 -900.261719 198.699219 -860.644531 224.082031 -813.785156 L 395.671875 -498.707031 L 395.671875 -282.882812 C 395.671875 -237.886719 393.136719 -199.910156 388.0625 -168.957031 C 382.945312 -137.734375 375.246094 -108.246094 364.964844 -80.496094 C 354.992188 -53.558594 342.074219 -23.738281 326.21875 8.964844 L 301.742188 -2.902344 L 328.941406 -2.902344 Z M 328.941406 0 "/></g></g></g><g fill="#c6a75e" fill-opacity="1"><g transform="translate(28.748919, 1130.404942)"><g><path d="M 301.75 0 L 301.75 -2.90625 C 317.21875 -34.820312 329.785156 -63.832031 339.453125 -89.9375 C 349.128906 -116.050781 356.382812 -143.859375 361.21875 -173.359375 C 366.050781 -202.859375 368.46875 -239.367188 368.46875 -282.890625 L 368.46875 -491.78125 L 200.1875 -800.78125 C 175.050781 -847.195312 152.566406 -886.363281 132.734375 -918.28125 C 112.910156 -950.195312 93.566406 -977.035156 74.703125 -998.796875 C 55.847656 -1020.554688 34.816406 -1040.140625 11.609375 -1057.546875 L 11.609375 -1061.90625 L 484.53125 -1061.90625 L 484.53125 -1057.546875 C 470.988281 -1045.941406 459.625 -1027.566406 450.4375 -1002.421875 C 441.25 -977.273438 438.101562 -948.019531 441 -914.65625 C 443.90625 -881.289062 456 -845.265625 477.28125 -806.578125 L 604.9375 -573.015625 L 715.1875 -768.859375 C 741.300781 -816.253906 754.359375 -858.328125 754.359375 -895.078125 C 754.359375 -931.828125 746.378906 -963.984375 730.421875 -991.546875 C 714.460938 -1019.109375 696.328125 -1041.59375 676.015625 -1059 L 676.015625 -1061.90625 L 996.625 -1061.90625 L 996.625 -1059 C 954.070312 -1017.414062 917.5625 -974.863281 887.09375 -931.34375 C 856.632812 -887.820312 825.929688 -838.5 794.984375 -783.375 L 631.046875 -496.140625 L 631.046875 -281.4375 C 631.046875 -238.882812 633.222656 -202.859375 637.578125 -173.359375 C 641.929688 -143.859375 648.941406 -116.050781 658.609375 -89.9375 C 668.285156 -63.832031 680.859375 -34.820312 696.328125 -2.90625 L 696.328125 0 Z M 301.75 0 "/></g></g></g></g></g></g><g clip-path="url(#3e6d11d8a6)"><g transform="matrix(1, 0, 0, 1, -0.000000000000042633, 0)"><g clip-path="url(#89c8e7b635)"><g fill="#1c1c1c" fill-opacity="1"><g transform="translate(7.206012, 1130.343281)"><g><path d="M 780.105469 -2.902344 L 780.105469 27.199219 L 329.667969 27.199219 L 329.667969 -8.570312 L 331.933594 -13.769531 C 348.03125 -50.703125 360.785156 -83.511719 370.191406 -112.199219 C 379.316406 -140.03125 385.945312 -170.488281 390.082031 -203.566406 C 394.292969 -237.265625 396.398438 -278.691406 396.398438 -327.855469 L 396.398438 -1002.421875 L 423.597656 -1002.421875 L 425.296875 -975.273438 L 355.664062 -970.921875 L 353.964844 -998.070312 L 356.546875 -970.992188 C 341.875 -969.59375 324.375 -960.324219 304.042969 -943.183594 C 280.503906 -923.335938 256.15625 -898.738281 231 -869.390625 C 205.34375 -839.457031 180.875 -808.574219 157.59375 -776.742188 C 134.039062 -744.53125 113.625 -715.953125 96.347656 -691 L 85.253906 -674.972656 L 12.585938 -695.734375 L 80.066406 -1089.097656 L 1029.703125 -1089.097656 L 1097.1875 -695.734375 L 1025.023438 -675.117188 L 950.722656 -776.746094 C 927.394531 -808.644531 903.113281 -839.589844 877.882812 -869.582031 C 853.253906 -898.855469 829.203125 -923.390625 805.730469 -943.183594 C 785.398438 -960.324219 767.898438 -969.59375 753.226562 -970.992188 L 755.804688 -998.070312 L 754.109375 -970.921875 L 684.476562 -975.273438 L 686.171875 -1002.421875 L 713.371094 -1002.421875 L 713.371094 -327.855469 C 713.371094 -278.691406 715.480469 -237.265625 719.691406 -203.566406 C 723.808594 -170.621094 730.640625 -140.292969 740.179688 -112.578125 C 750.164062 -83.578125 762.792969 -50.457031 778.070312 -13.226562 L 780.105469 -8.265625 Z M 725.703125 -2.902344 L 752.902344 -2.902344 L 727.738281 7.421875 C 712.066406 -30.78125 699.066406 -64.875 688.742188 -94.871094 C 677.972656 -126.148438 670.296875 -160.132812 665.710938 -196.820312 C 661.21875 -232.757812 658.972656 -276.433594 658.972656 -327.855469 L 658.972656 -1031.375 L 757.945312 -1025.1875 L 758.382812 -1025.148438 C 784.332031 -1022.675781 811.804688 -1009.21875 840.796875 -984.773438 C 866.644531 -962.980469 892.882812 -936.253906 919.511719 -904.601562 C 945.539062 -873.667969 970.582031 -841.75 994.640625 -808.851562 L 1057.746094 -722.535156 L 1035.785156 -706.480469 L 1028.316406 -732.636719 L 1058.777344 -741.339844 L 1066.25 -715.1875 L 1039.441406 -710.585938 L 979.964844 -1057.300781 L 1006.773438 -1061.898438 L 1006.773438 -1034.699219 L 103 -1034.699219 L 103 -1061.898438 L 129.808594 -1057.300781 L 70.328125 -710.585938 L 43.519531 -715.1875 L 50.992188 -741.339844 L 81.457031 -732.636719 L 73.984375 -706.480469 L 51.621094 -721.964844 C 69.164062 -747.304688 89.851562 -776.265625 113.683594 -808.855469 C 137.792969 -841.816406 163.128906 -873.796875 189.695312 -904.792969 C 216.765625 -936.375 243.191406 -963.035156 268.976562 -984.773438 C 297.96875 -1009.21875 325.4375 -1022.675781 351.386719 -1025.148438 L 351.828125 -1025.1875 L 450.800781 -1031.375 L 450.800781 -327.855469 C 450.800781 -276.433594 448.554688 -232.757812 444.0625 -196.820312 C 439.492188 -160.265625 432.097656 -126.410156 421.882812 -95.25 C 411.945312 -64.941406 398.585938 -30.535156 381.800781 7.96875 L 356.867188 -2.902344 L 384.066406 -2.902344 L 384.066406 0 L 356.867188 0 L 356.867188 -27.199219 L 752.902344 -27.199219 L 752.902344 0 L 725.703125 0 Z M 725.703125 -2.902344 "/></g></g></g><g fill="#c6a75e" fill-opacity="1"><g transform="translate(7.206012, 1130.343281)"><g><path d="M 752.90625 -2.90625 L 752.90625 0 L 356.875 0 L 356.875 -2.90625 C 373.3125 -40.625 386.363281 -74.226562 396.03125 -103.71875 C 405.707031 -133.21875 412.71875 -165.375 417.0625 -200.1875 C 421.414062 -235.007812 423.59375 -277.566406 423.59375 -327.859375 L 423.59375 -1002.421875 L 353.96875 -998.078125 C 333.65625 -996.140625 311.164062 -984.773438 286.5 -963.984375 C 261.84375 -943.191406 236.457031 -917.5625 210.34375 -887.09375 C 184.238281 -856.632812 159.335938 -825.203125 135.640625 -792.796875 C 111.941406 -760.398438 91.390625 -731.628906 73.984375 -706.484375 L 43.515625 -715.1875 L 103 -1061.90625 L 1006.78125 -1061.90625 L 1066.25 -715.1875 L 1035.796875 -706.484375 C 1017.421875 -731.628906 996.382812 -760.398438 972.6875 -792.796875 C 948.988281 -825.203125 924.320312 -856.632812 898.6875 -887.09375 C 873.0625 -917.5625 847.914062 -943.191406 823.25 -963.984375 C 798.59375 -984.773438 776.113281 -996.140625 755.8125 -998.078125 L 686.171875 -1002.421875 L 686.171875 -327.859375 C 686.171875 -277.566406 688.347656 -235.007812 692.703125 -200.1875 C 697.054688 -165.375 704.3125 -133.21875 714.46875 -103.71875 C 724.625 -74.226562 737.4375 -40.625 752.90625 -2.90625 Z M 752.90625 -2.90625 "/></g></g></g></g></g></g></g></g></svg>